HIERARCHY
ROOT Hips
{
	OFFSET 0.000000 0.000000 0.000000
	CHANNELS 6 Xposition Yposition Zposition Xrotation Yrotation Zrotation
	JOINT Spine
	{
		OFFSET 0.000000 -0.000000 2.241567
		CHANNELS 6 Xposition Yposition Zposition Xrotation Yrotation Zrotation
		JOINT Spine1
		{
			OFFSET 0.000000 -0.000001 6.117040
			CHANNELS 6 Xposition Yposition Zposition Xrotation Yrotation Zrotation
			JOINT Neck
			{
				OFFSET 0.000000 -0.000001 6.663776
				CHANNELS 6 Xposition Yposition Zposition Xrotation Yrotation Zrotation
				JOINT Head
				{
					OFFSET 0.000000 -0.546725 4.237115
					CHANNELS 6 Xposition Yposition Zposition Xrotation Yrotation Zrotation
					End Site
					{
						OFFSET 0.000000 -0.000001 5.467228
					}
				}
			}
			JOINT LeftShoulder
			{
				OFFSET 1.100958 0.144516 5.380643
				CHANNELS 6 Xposition Yposition Zposition Xrotation Yrotation Zrotation
				JOINT LeftArm
				{
					OFFSET 3.928530 0.000000 0.000000
					CHANNELS 6 Xposition Yposition Zposition Xrotation Yrotation Zrotation
					JOINT LeftForeArm
					{
						OFFSET 7.703219 0.000000 0.000000
						CHANNELS 6 Xposition Yposition Zposition Xrotation Yrotation Zrotation
						JOINT LeftHand
						{
							OFFSET 7.159131 0.000000 0.000000
							CHANNELS 6 Xposition Yposition Zposition Xrotation Yrotation Zrotation
							End Site
							{
								OFFSET 4.100422 0.000000 0.000000
							}
						}
					}
				}
			}
			JOINT RightShoulder
			{
				OFFSET -1.085770 0.144516 5.380643
				CHANNELS 6 Xposition Yposition Zposition Xrotation Yrotation Zrotation
				JOINT RightArm
				{
					OFFSET -3.928530 0.000000 0.000000
					CHANNELS 6 Xposition Yposition Zposition Xrotation Yrotation Zrotation
					JOINT RightForeArm
					{
						OFFSET -7.703220 0.000000 0.000000
						CHANNELS 6 Xposition Yposition Zposition Xrotation Yrotation Zrotation
						JOINT RightHand
						{
							OFFSET -7.159133 0.000000 0.000000
							CHANNELS 6 Xposition Yposition Zposition Xrotation Yrotation Zrotation
							End Site
							{
								OFFSET -4.100422 0.000000 0.000000
							}
						}
					}
				}
			}
		}
	}
	JOINT LeftUpLeg
	{
		OFFSET 2.733621 0.000000 0.000000
		CHANNELS 6 Xposition Yposition Zposition Xrotation Yrotation Zrotation
		JOINT LeftLeg
		{
			OFFSET 0.000000 0.000002 -11.496661
			CHANNELS 6 Xposition Yposition Zposition Xrotation Yrotation Zrotation
			JOINT LeftFoot
			{
				OFFSET 0.000000 0.000002 -12.052939
				CHANNELS 6 Xposition Yposition Zposition Xrotation Yrotation Zrotation
				JOINT LeftToeBase
				{
					OFFSET 0.000000 -4.100430 -1.776853
					CHANNELS 6 Xposition Yposition Zposition Xrotation Yrotation Zrotation
					End Site
					{
						OFFSET 0.000000 -1.093446 0.000000
					}
				}
			}
		}
	}
	JOINT RightUpLeg
	{
		OFFSET -2.733621 0.000000 0.000000
		CHANNELS 6 Xposition Yposition Zposition Xrotation Yrotation Zrotation
		JOINT RightLeg
		{
			OFFSET 0.000000 0.000002 -11.496661
			CHANNELS 6 Xposition Yposition Zposition Xrotation Yrotation Zrotation
			JOINT RightFoot
			{
				OFFSET 0.000000 0.000002 -12.052939
				CHANNELS 6 Xposition Yposition Zposition Xrotation Yrotation Zrotation
				JOINT RightToeBase
				{
					OFFSET 0.000000 -4.100430 -1.776853
					CHANNELS 6 Xposition Yposition Zposition Xrotation Yrotation Zrotation
					End Site
					{
						OFFSET 0.000000 -1.093446 0.000000
					}
				}
			}
		}
	}
}
MOTION
Frames: 9
Frame Time: 0.016667
-4.997363 -5.968123 23.938499 7.409485 0.327799 -2.552921 0.000000 -0.000000 2.241567 -22.171288 1.481871 10.763973 0.000000 -0.000000 6.117042 21.814149 -9.159980 5.262075 -0.000000 -0.000001 6.663777 0.191672 -7.031584 -2.261835 0.000001 -0.546723 4.237119 7.400002 1.256576 -1.330292 1.100958 0.144516 5.380642 -2.828898 -13.429666 0.728600 3.928530 -0.000001 -0.000004 17.303902 46.352973 -19.255485 7.703223 -0.000000 -0.000004 -32.169272 0.671719 -75.725686 7.159130 -0.000000 0.000001 -29.446663 -20.632434 17.685805 -1.085770 0.144516 5.380641 -5.516666 7.304278 7.929203 -3.928530 0.000000 -0.000002 19.802822 -41.756372 50.299654 -7.703218 0.000001 0.000001 -62.046422 27.505776 117.515959 -7.159128 0.000001 -0.000001 -17.445884 56.783751 -1.190285 2.733622 -0.000000 -0.000002 -9.015753 -1.218059 1.871344 0.000000 0.000002 -11.496662 10.694621 -2.355007 4.944519 0.000000 0.000001 -12.052937 -3.773387 -3.325469 21.983029 -0.000000 -4.100430 -1.776851 0.000000 -0.000001 -0.000000 -2.733621 -0.000001 -0.000003 -20.909579 16.836300 7.042747 -0.000000 0.000002 -11.496662 22.072960 -5.227081 15.487847 -0.000001 0.000001 -12.052937 -1.420869 -3.174349 -47.938543 -0.000002 -4.100430 -1.776853 0.000003 0.000000 -0.000004 
-4.944198 -5.949993 23.941534 7.390241 0.330099 -2.705470 0.000000 -0.000000 2.241567 -22.100563 1.400855 10.607326 -0.000000 -0.000002 6.117041 21.709225 -8.983755 5.172548 0.000000 -0.000001 6.663782 0.436320 -7.219781 -2.016969 -0.000000 -0.546724 4.237114 7.214293 1.517869 -1.049571 1.100958 0.144516 5.380648 -3.125082 -13.350384 0.385543 3.928532 0.000001 0.000001 14.268413 46.544143 -17.854161 7.703220 -0.000000 -0.000005 -32.948553 0.095487 -75.582867 7.159132 -0.000001 -0.000002 -29.327497 -23.583077 17.565519 -1.085770 0.144516 5.380646 -5.327887 7.264612 7.810369 -3.928529 0.000000 -0.000002 20.143862 -42.254917 50.596563 -7.703216 0.000000 -0.000001 -61.595964 27.638810 117.445513 -7.159129 0.000002 0.000000 -16.668614 56.916253 -1.522866 2.733622 0.000000 -0.000000 -9.098612 -1.126942 1.910056 -0.000000 0.000002 -11.496664 10.842107 -2.316429 5.266493 0.000000 0.000001 -12.052936 -3.819884 -3.369774 21.777220 -0.000000 -4.100430 -1.776851 0.000000 -0.000002 -0.000001 -2.733621 -0.000000 0.000001 -21.136500 16.653120 7.442629 0.000001 0.000003 -11.496661 22.506913 -5.501644 15.033414 0.000000 0.000001 -12.052938 -2.068771 -2.562224 -48.031963 0.000000 -4.100431 -1.776849 0.000005 -0.000001 -0.000003 
-4.896611 -5.929975 23.945076 7.338953 0.348808 -2.833969 0.000001 -0.000001 2.241567 -21.989079 1.346923 10.403339 0.000000 0.000000 6.117043 21.615392 -8.844707 5.073971 -0.000000 -0.000001 6.663776 0.691418 -7.350504 -1.736844 0.000000 -0.546724 4.237111 6.998694 1.740430 -0.742598 1.100958 0.144516 5.380639 -3.524049 -13.291604 0.006672 3.928529 0.000001 0.000001 11.727937 46.589383 -16.649495 7.703221 -0.000000 -0.000003 -33.898215 -0.504159 -75.483323 7.159130 -0.000001 -0.000000 -29.366928 -26.563169 17.415526 -1.085770 0.144516 5.380646 -5.196825 7.248180 7.749618 -3.928530 0.000000 -0.000000 20.797166 -42.531923 51.015991 -7.703218 0.000001 0.000002 -61.443344 27.912092 117.379260 -7.159132 -0.000002 -0.000003 -15.964266 57.156041 -1.872078 2.733621 -0.000001 -0.000000 -9.182197 -1.161155 1.791048 0.000001 0.000002 -11.496665 11.060976 -2.078185 5.239292 0.000000 0.000000 -12.052938 -3.877732 -3.526701 21.985045 0.000000 -4.100430 -1.776851 0.000002 -0.000000 -0.000001 -2.733620 -0.000001 0.000000 -21.292268 16.432260 7.855885 0.000000 0.000004 -11.496660 22.884270 -5.761095 14.458074 -0.000000 0.000001 -12.052938 -2.670847 -2.213558 -47.989397 0.000000 -4.100430 -1.776851 0.000002 0.000000 -0.000002 
-4.851181 -5.912824 23.948830 7.296592 0.371482 -2.947488 -0.000000 -0.000000 2.241567 -21.895742 1.283968 10.164796 0.000000 -0.000002 6.117045 21.517802 -8.691588 4.961578 -0.000001 -0.000002 6.663771 0.968005 -7.512626 -1.438943 -0.000001 -0.546724 4.237120 6.787471 2.046724 -0.408657 1.100958 0.144516 5.380641 -3.817670 -13.228378 -0.296764 3.928531 -0.000000 -0.000000 9.076279 46.440567 -15.430244 7.703218 0.000001 -0.000001 -34.616748 -0.936295 -75.295199 7.159131 0.000000 0.000003 -29.287383 -29.623009 17.300864 -1.085770 0.144516 5.380641 -4.978404 7.234176 7.650718 -3.928530 -0.000001 -0.000004 21.375495 -42.777284 51.459297 -7.703216 0.000001 0.000002 -61.121915 28.112610 117.203738 -7.159130 0.000001 -0.000004 -15.418751 57.414925 -1.976985 2.733621 0.000000 -0.000001 -9.276593 -1.180464 1.804929 0.000000 0.000002 -11.496665 11.276046 -1.900067 5.199588 0.000001 0.000001 -12.052939 -3.932242 -3.631834 22.098319 -0.000000 -4.100430 -1.776851 0.000001 0.000001 -0.000002 -2.733621 -0.000000 0.000001 -21.397903 16.212043 8.243449 -0.000000 0.000005 -11.496662 23.197617 -5.928877 14.305091 -0.000000 -0.000000 -12.052938 -3.074041 -1.835347 -47.967869 -0.000000 -4.100430 -1.776851 -0.000001 0.000001 -0.000004 
-4.807077 -5.898089 23.950808 7.224734 0.390699 -3.060216 0.000000 -0.000000 2.241564 -21.749942 1.245995 9.913153 0.000000 -0.000002 6.117041 21.377794 -8.571078 4.846566 -0.000000 -0.000001 6.663783 1.245602 -7.673852 -1.122840 -0.000001 -0.546724 4.237113 6.607883 2.394192 -0.053927 1.100958 0.144517 5.380650 -4.162232 -13.205479 -0.630471 3.928532 -0.000000 -0.000003 6.608553 46.188744 -14.207872 7.703220 -0.000000 -0.000001 -35.205776 -1.473125 -75.043104 7.159131 -0.000001 0.000001 -29.017844 -32.453412 17.256401 -1.085770 0.144517 5.380647 -4.742156 7.195205 7.502571 -3.928530 -0.000000 -0.000008 22.147822 -42.794485 52.011679 -7.703219 -0.000001 -0.000000 -60.957608 28.487356 117.035373 -7.159124 0.000001 -0.000003 -14.476121 57.539897 -2.617153 2.733621 -0.000000 -0.000002 -9.328333 -1.164046 1.971502 0.000000 0.000002 -11.496665 11.464681 -1.813590 5.324312 0.000000 0.000001 -12.052937 -4.004425 -3.715513 21.919477 -0.000000 -4.100430 -1.776849 0.000003 -0.000001 0.000001 -2.733621 -0.000000 -0.000004 -21.464776 16.003323 8.576588 -0.000000 0.000003 -11.496659 23.551792 -6.181143 14.224788 0.000002 0.000001 -12.052940 -3.549969 -1.352652 -47.982359 -0.000001 -4.100430 -1.776851 0.000001 0.000003 -0.000002 
-4.765954 -5.885503 23.952484 7.148625 0.400808 -3.153714 0.000000 0.000000 2.241566 -21.628136 1.237584 9.628233 0.000001 -0.000001 6.117041 21.281606 -8.488895 4.729315 0.000000 -0.000001 6.663779 1.510276 -7.763760 -0.783913 0.000001 -0.546726 4.237115 6.430796 2.709622 0.315778 1.100958 0.144516 5.380643 -4.497437 -13.155002 -0.943422 3.928531 0.000000 -0.000003 4.679886 45.729612 -13.329768 7.703219 0.000000 -0.000001 -35.955233 -2.152895 -74.755266 7.159130 0.000000 -0.000001 -28.838315 -35.612422 16.928704 -1.085769 0.144517 5.380645 -4.556435 7.213904 7.445448 -3.928529 -0.000000 0.000002 22.969923 -42.690130 52.591558 -7.703216 0.000001 0.000001 -60.946003 28.919079 116.823323 -7.159132 0.000002 -0.000001 -13.822699 57.958677 -2.905775 2.733621 0.000000 -0.000000 -9.392954 -1.108478 2.189655 0.000000 0.000002 -11.496665 11.677833 -1.812592 5.514225 0.000000 0.000001 -12.052938 -4.088488 -3.717604 21.629957 0.000000 -4.100430 -1.776853 0.000001 0.000000 -0.000000 -2.733621 0.000000 -0.000002 -21.507422 15.803804 8.903662 0.000001 0.000002 -11.496666 23.788746 -6.292740 14.367241 -0.000000 0.000001 -12.052938 -3.627963 -0.743859 -47.933431 -0.000000 -4.100431 -1.776853 -0.000003 0.000001 -0.000000 
-4.728643 -5.873460 23.953030 7.106364 0.396623 -3.241654 -0.000000 -0.000001 2.241567 -21.532422 1.239461 9.350417 0.000001 0.000001 6.117039 21.160334 -8.391382 4.609122 -0.000000 -0.000001 6.663779 1.811356 -7.942663 -0.476788 0.000000 -0.546725 4.237123 6.222125 3.191143 0.672773 1.100958 0.144517 5.380643 -4.861166 -13.157417 -1.268926 3.928530 0.000001 0.000003 2.795103 45.135478 -12.407290 7.703217 0.000001 0.000000 -36.400697 -2.947550 -74.325149 7.159131 -0.000001 -0.000000 -28.306618 -38.796834 16.542353 -1.085770 0.144517 5.380643 -4.393669 7.188849 7.391945 -3.928531 0.000000 -0.000004 23.749693 -42.653691 52.974404 -7.703218 -0.000002 0.000004 -60.713299 29.313867 116.607189 -7.159129 -0.000001 -0.000003 -12.904196 58.286341 -3.384792 2.733621 -0.000000 -0.000002 -9.470088 -1.130916 2.263580 0.000000 0.000002 -11.496665 11.875752 -1.624949 5.593056 0.000001 0.000002 -12.052938 -4.174719 -3.815048 21.541232 -0.000001 -4.100431 -1.776853 0.000001 0.000000 -0.000003 -2.733621 -0.000001 -0.000002 -21.569281 15.596872 9.168644 0.000001 0.000004 -11.496661 24.153752 -6.373451 15.015107 -0.000001 0.000001 -12.052937 -3.837248 0.079703 -48.152318 0.000002 -4.100431 -1.776851 0.000000 0.000001 0.000001 
-4.693615 -5.860615 23.952436 7.088347 0.390427 -3.327540 0.000001 -0.000000 2.241567 -21.429266 1.274265 9.087111 0.000001 -0.000001 6.117039 20.984826 -8.356136 4.499419 0.000001 -0.000001 6.663781 2.098610 -8.063236 -0.156840 -0.000000 -0.546725 4.237113 6.046845 3.625536 1.034113 1.100958 0.144516 5.380644 -5.229272 -13.176710 -1.613227 3.928531 0.000000 0.000001 1.137300 44.458316 -11.566655 7.703220 -0.000001 -0.000001 -36.769104 -3.886790 -73.817078 7.159130 -0.000002 0.000002 -27.658542 -41.499731 16.250205 -1.085769 0.144516 5.380646 -4.134689 7.214595 7.262931 -3.928530 -0.000001 0.000003 24.623942 -42.461435 53.457531 -7.703220 0.000001 0.000001 -60.558800 29.691782 116.391027 -7.159132 0.000001 0.000001 -12.071111 58.401177 -3.912597 2.733621 0.000000 0.000000 -9.587729 -1.170179 2.338815 0.000001 0.000002 -11.496665 12.125487 -1.440957 5.553886 0.000000 0.000002 -12.052936 -4.277977 -3.927638 21.483008 0.000000 -4.100430 -1.776851 0.000003 -0.000000 0.000001 -2.733621 0.000000 -0.000001 -21.663801 15.394299 9.439211 -0.000000 0.000002 -11.496661 24.458255 -6.376397 15.747962 -0.000000 0.000001 -12.052938 -4.124425 0.639426 -48.372209 0.000001 -4.100429 -1.776851 0.000002 0.000002 -0.000004 
-4.660035 -5.850861 23.949438 7.061411 0.361976 -3.394591 -0.000000 0.000000 2.241566 -21.338879 1.356788 8.815424 0.000000 0.000001 6.117042 20.834650 -8.371945 4.395237 -0.000000 -0.000001 6.663779 2.390357 -8.157772 0.185599 0.000001 -0.546723 4.237111 5.850912 4.053609 1.416333 1.100958 0.144516 5.380642 -5.527912 -13.182614 -1.878749 3.928529 0.000000 -0.000004 -0.290660 43.623124 -10.944463 7.703218 -0.000001 0.000001 -36.964226 -5.052765 -73.144168 7.159126 -0.000000 -0.000002 -26.633209 -44.660302 15.940188 -1.085770 0.144516 5.380645 -3.914711 7.223359 7.148687 -3.928530 -0.000002 0.000004 25.493797 -42.141851 53.848689 -7.703217 0.000001 -0.000001 -60.438015 30.134443 116.149307 -7.159132 -0.000003 -0.000000 -11.198430 58.460648 -4.449440 2.733621 0.000000 -0.000001 -9.702560 -1.162713 2.587365 0.000001 0.000002 -11.496662 12.373034 -1.318524 5.517090 -0.000000 0.000002 -12.052939 -4.438134 -3.934809 21.356835 -0.000000 -4.100430 -1.776851 -0.000001 -0.000001 0.000000 -2.733621 0.000000 0.000000 -21.808200 15.198602 9.560421 0.000000 0.000002 -11.496662 24.880827 -6.251915 16.511818 0.000000 0.000001 -12.052938 -4.279763 1.120808 -48.482438 0.000001 -4.100431 -1.776851 0.000004 0.000001 0.000002 
